<?xml version="1.0" encoding="UTF-8" standalone="no"?>
<!DOCTYPE svg PUBLIC "-//W3C//DTD SVG 1.1//EN"
 "http://www.w3.org/Graphics/SVG/1.1/DTD/svg11.dtd">
<!-- Generated by graphviz version 12.1.2 (20240928.0832)
 -->
<!-- Title: public.user_provision Pages: 1 -->
<svg width="588pt" height="417pt"
 viewBox="0.00 0.00 587.55 417.20" xmlns="http://www.w3.org/2000/svg" xmlns:xlink="http://www.w3.org/1999/xlink">
<g id="graph0" class="graph" transform="scale(1 1) rotate(0) translate(4 413.2)">
<title>public.user_provision</title>
<polygon fill="white" stroke="none" points="-4,4 -4,-413.2 583.55,-413.2 583.55,4 -4,4"/>
<!-- public.user_provision -->
<g id="node1" class="node">
<title>public.user_provision</title>
<polygon fill="#efefef" stroke="none" points="46.2,-327.4 46.2,-363 341.17,-363 341.17,-327.4 46.2,-327.4"/>
<polygon fill="none" stroke="black" points="46.2,-327.4 46.2,-363 341.17,-363 341.17,-327.4 46.2,-327.4"/>
<text text-anchor="start" x="53.2" y="-340.8" font-family="Arial Bold" font-size="18.00">public.user_provision</text>
<text text-anchor="start" x="209.68" y="-340.8" font-family="Arial" font-size="14.00">    </text>
<text text-anchor="start" x="240.8" y="-340.8" font-family="Arial" font-size="14.00" fill="#666666">[BASE TABLE]</text>
<polygon fill="none" stroke="black" points="46.2,-296.6 46.2,-327.4 341.17,-327.4 341.17,-296.6 46.2,-296.6"/>
<text text-anchor="start" x="53.2" y="-308.8" font-family="Arial" font-size="14.00">user_id </text>
<text text-anchor="start" x="103.01" y="-308.8" font-family="Arial" font-size="14.00" fill="#666666">[bigint]</text>
<polygon fill="none" stroke="black" points="46.2,-265.8 46.2,-296.6 341.17,-296.6 341.17,-265.8 46.2,-265.8"/>
<text text-anchor="start" x="53.2" y="-278" font-family="Arial" font-size="14.00">created_at </text>
<text text-anchor="start" x="123.25" y="-278" font-family="Arial" font-size="14.00" fill="#666666">[timestamp with time zone]</text>
<polygon fill="none" stroke="black" stroke-width="3" points="44.7,-264.3 44.7,-364.5 342.67,-364.5 342.67,-264.3 44.7,-264.3"/>
</g>
<!-- public.users -->
<g id="node2" class="node">
<title>public.users</title>
<polygon fill="#efefef" stroke="none" points="68.8,-104.8 68.8,-140.4 318.57,-140.4 318.57,-104.8 68.8,-104.8"/>
<polygon fill="none" stroke="black" points="68.8,-104.8 68.8,-140.4 318.57,-140.4 318.57,-104.8 68.8,-104.8"/>
<text text-anchor="start" x="88.2" y="-118.2" font-family="Arial Bold" font-size="18.00">public.users</text>
<text text-anchor="start" x="174.68" y="-118.2" font-family="Arial" font-size="14.00">    </text>
<text text-anchor="start" x="205.8" y="-118.2" font-family="Arial" font-size="14.00" fill="#666666">[BASE TABLE]</text>
<polygon fill="none" stroke="black" points="68.8,-74 68.8,-104.8 318.57,-104.8 318.57,-74 68.8,-74"/>
<text text-anchor="start" x="75.8" y="-86.2" font-family="Arial" font-size="14.00">id </text>
<text text-anchor="start" x="90.59" y="-86.2" font-family="Arial" font-size="14.00" fill="#666666">[bigint]</text>
<polygon fill="none" stroke="black" points="68.8,-43.2 68.8,-74 318.57,-74 318.57,-43.2 68.8,-43.2"/>
<text text-anchor="start" x="75.8" y="-55.4" font-family="Arial" font-size="14.00">created_at </text>
<text text-anchor="start" x="145.85" y="-55.4" font-family="Arial" font-size="14.00" fill="#666666">[timestamp with time zone]</text>
</g>
<!-- public.user_provision&#45;&gt;public.users -->
<g id="edge1" class="edge">
<title>public.user_provision:user_id&#45;&gt;public.users:id</title>
<path fill="none" stroke="black" d="M352.47,-311.15C439.88,-296.2 415.42,-89.4 319.57,-89.4"/>
<polygon fill="black" stroke="black" points="352.47,-311.15 342.13,-307.49 347.15,-311.59 342.84,-311.94 342.84,-311.94 342.84,-311.94 347.15,-311.59 342.87,-316.46 352.47,-311.15"/>
<text text-anchor="start" x="349.17" y="-322" font-family="Arial" font-size="10.00">FOREIGN KEY (user_id) REFERENCES users(id)</text>
</g>
</g>
</svg>
