<?xml version="1.0" encoding="UTF-8" standalone="no"?>
<!DOCTYPE svg PUBLIC "-//W3C//DTD SVG 1.1//EN"
 "http://www.w3.org/Graphics/SVG/1.1/DTD/svg11.dtd">
<!-- Generated by graphviz version 12.1.2 (20240928.0832)
 -->
<!-- Title: public.user_actives Pages: 1 -->
<svg width="570pt" height="417pt"
 viewBox="0.00 0.00 569.52 417.20" xmlns="http://www.w3.org/2000/svg" xmlns:xlink="http://www.w3.org/1999/xlink">
<g id="graph0" class="graph" transform="scale(1 1) rotate(0) translate(4 413.2)">
<title>public.user_actives</title>
<polygon fill="white" stroke="none" points="-4,4 -4,-413.2 565.52,-413.2 565.52,4 -4,4"/>
<!-- public.user_actives -->
<g id="node1" class="node">
<title>public.user_actives</title>
<polygon fill="#efefef" stroke="none" points="46.2,-327.4 46.2,-363 323.14,-363 323.14,-327.4 46.2,-327.4"/>
<polygon fill="none" stroke="black" points="46.2,-327.4 46.2,-363 323.14,-363 323.14,-327.4 46.2,-327.4"/>
<text text-anchor="start" x="53.2" y="-340.8" font-family="Arial Bold" font-size="18.00">public.user_actives</text>
<text text-anchor="start" x="191.65" y="-340.8" font-family="Arial" font-size="14.00">    </text>
<text text-anchor="start" x="222.77" y="-340.8" font-family="Arial" font-size="14.00" fill="#666666">[BASE TABLE]</text>
<polygon fill="none" stroke="black" points="46.2,-296.6 46.2,-327.4 323.14,-327.4 323.14,-296.6 46.2,-296.6"/>
<text text-anchor="start" x="53.2" y="-308.8" font-family="Arial" font-size="14.00">user_id </text>
<text text-anchor="start" x="103.01" y="-308.8" font-family="Arial" font-size="14.00" fill="#666666">[bigint]</text>
<polygon fill="none" stroke="black" points="46.2,-265.8 46.2,-296.6 323.14,-296.6 323.14,-265.8 46.2,-265.8"/>
<text text-anchor="start" x="53.2" y="-278" font-family="Arial" font-size="14.00">created_at </text>
<text text-anchor="start" x="123.25" y="-278" font-family="Arial" font-size="14.00" fill="#666666">[timestamp with time zone]</text>
<polygon fill="none" stroke="black" stroke-width="3" points="44.7,-264.3 44.7,-364.5 324.64,-364.5 324.64,-264.3 44.7,-264.3"/>
</g>
<!-- public.users -->
<g id="node2" class="node">
<title>public.users</title>
<polygon fill="#efefef" stroke="none" points="59.79,-104.8 59.79,-140.4 309.56,-140.4 309.56,-104.8 59.79,-104.8"/>
<polygon fill="none" stroke="black" points="59.79,-104.8 59.79,-140.4 309.56,-140.4 309.56,-104.8 59.79,-104.8"/>
<text text-anchor="start" x="79.18" y="-118.2" font-family="Arial Bold" font-size="18.00">public.users</text>
<text text-anchor="start" x="165.67" y="-118.2" font-family="Arial" font-size="14.00">    </text>
<text text-anchor="start" x="196.79" y="-118.2" font-family="Arial" font-size="14.00" fill="#666666">[BASE TABLE]</text>
<polygon fill="none" stroke="black" points="59.79,-74 59.79,-104.8 309.56,-104.8 309.56,-74 59.79,-74"/>
<text text-anchor="start" x="66.79" y="-86.2" font-family="Arial" font-size="14.00">id </text>
<text text-anchor="start" x="81.57" y="-86.2" font-family="Arial" font-size="14.00" fill="#666666">[bigint]</text>
<polygon fill="none" stroke="black" points="59.79,-43.2 59.79,-74 309.56,-74 309.56,-43.2 59.79,-43.2"/>
<text text-anchor="start" x="66.79" y="-55.4" font-family="Arial" font-size="14.00">created_at </text>
<text text-anchor="start" x="136.83" y="-55.4" font-family="Arial" font-size="14.00" fill="#666666">[timestamp with time zone]</text>
</g>
<!-- public.user_actives&#45;&gt;public.users -->
<g id="edge1" class="edge">
<title>public.user_actives:user_id&#45;&gt;public.users:id</title>
<path fill="none" stroke="black" d="M334.45,-311.15C422.17,-296.2 406.09,-89.4 310.56,-89.4"/>
<polygon fill="black" stroke="black" points="334.44,-311.15 324.11,-307.49 329.13,-311.59 324.81,-311.94 324.81,-311.94 324.81,-311.94 329.13,-311.59 324.85,-316.46 334.44,-311.15"/>
<text text-anchor="start" x="331.14" y="-322" font-family="Arial" font-size="10.00">FOREIGN KEY (user_id) REFERENCES users(id)</text>
</g>
</g>
</svg>
