<?xml version="1.0" encoding="UTF-8" standalone="no"?>
<!DOCTYPE svg PUBLIC "-//W3C//DTD SVG 1.1//EN"
 "http://www.w3.org/Graphics/SVG/1.1/DTD/svg11.dtd">
<!-- Generated by graphviz version 12.1.2 (20240928.0832)
 -->
<!-- Title: public.user_profiles Pages: 1 -->
<svg width="592pt" height="787pt"
 viewBox="0.00 0.00 592.16 786.80" xmlns="http://www.w3.org/2000/svg" xmlns:xlink="http://www.w3.org/1999/xlink">
<g id="graph0" class="graph" transform="scale(1 1) rotate(0) translate(4 782.8)">
<title>public.user_profiles</title>
<polygon fill="white" stroke="none" points="-4,4 -4,-782.8 588.16,-782.8 588.16,4 -4,4"/>
<!-- public.user_profiles -->
<g id="node1" class="node">
<title>public.user_profiles</title>
<polygon fill="#efefef" stroke="none" points="46.2,-697 46.2,-732.6 345.78,-732.6 345.78,-697 46.2,-697"/>
<polygon fill="none" stroke="black" points="46.2,-697 46.2,-732.6 345.78,-732.6 345.78,-697 46.2,-697"/>
<text text-anchor="start" x="62.02" y="-710.4" font-family="Arial Bold" font-size="18.00">public.user_profiles</text>
<text text-anchor="start" x="205.48" y="-710.4" font-family="Arial" font-size="14.00">    </text>
<text text-anchor="start" x="236.6" y="-710.4" font-family="Arial" font-size="14.00" fill="#666666">[BASE TABLE]</text>
<polygon fill="none" stroke="black" points="46.2,-666.2 46.2,-697 345.78,-697 345.78,-666.2 46.2,-666.2"/>
<text text-anchor="start" x="53.2" y="-678.4" font-family="Arial" font-size="14.00">user_id </text>
<text text-anchor="start" x="103.01" y="-678.4" font-family="Arial" font-size="14.00" fill="#666666">[bigint]</text>
<polygon fill="none" stroke="black" points="46.2,-635.4 46.2,-666.2 345.78,-666.2 345.78,-635.4 46.2,-635.4"/>
<text text-anchor="start" x="53.2" y="-647.6" font-family="Arial" font-size="14.00">user_multi_id </text>
<text text-anchor="start" x="140.35" y="-647.6" font-family="Arial" font-size="14.00" fill="#666666">[varchar]</text>
<polygon fill="none" stroke="black" points="46.2,-604.6 46.2,-635.4 345.78,-635.4 345.78,-604.6 46.2,-604.6"/>
<text text-anchor="start" x="53.2" y="-616.8" font-family="Arial" font-size="14.00">resource_id </text>
<text text-anchor="start" x="130.24" y="-616.8" font-family="Arial" font-size="14.00" fill="#666666">[varchar]</text>
<polygon fill="none" stroke="black" points="46.2,-573.8 46.2,-604.6 345.78,-604.6 345.78,-573.8 46.2,-573.8"/>
<text text-anchor="start" x="53.2" y="-586" font-family="Arial" font-size="14.00">email </text>
<text text-anchor="start" x="90.54" y="-586" font-family="Arial" font-size="14.00" fill="#666666">[varchar]</text>
<polygon fill="none" stroke="black" points="46.2,-543 46.2,-573.8 345.78,-573.8 345.78,-543 46.2,-543"/>
<text text-anchor="start" x="53.2" y="-555.2" font-family="Arial" font-size="14.00">password </text>
<text text-anchor="start" x="117.01" y="-555.2" font-family="Arial" font-size="14.00" fill="#666666">[varchar]</text>
<polygon fill="none" stroke="black" points="46.2,-512.2 46.2,-543 345.78,-543 345.78,-512.2 46.2,-512.2"/>
<text text-anchor="start" x="53.2" y="-524.4" font-family="Arial" font-size="14.00">post_code </text>
<text text-anchor="start" x="121.7" y="-524.4" font-family="Arial" font-size="14.00" fill="#666666">[varchar]</text>
<polygon fill="none" stroke="black" points="46.2,-481.4 46.2,-512.2 345.78,-512.2 345.78,-481.4 46.2,-481.4"/>
<text text-anchor="start" x="53.2" y="-493.6" font-family="Arial" font-size="14.00">address </text>
<text text-anchor="start" x="106.9" y="-493.6" font-family="Arial" font-size="14.00" fill="#666666">[bigint]</text>
<polygon fill="none" stroke="black" points="46.2,-450.6 46.2,-481.4 345.78,-481.4 345.78,-450.6 46.2,-450.6"/>
<text text-anchor="start" x="53.2" y="-462.8" font-family="Arial" font-size="14.00">address_kana </text>
<text text-anchor="start" x="145.04" y="-462.8" font-family="Arial" font-size="14.00" fill="#666666">[varchar]</text>
<polygon fill="none" stroke="black" points="46.2,-419.8 46.2,-450.6 345.78,-450.6 345.78,-419.8 46.2,-419.8"/>
<text text-anchor="start" x="53.2" y="-432" font-family="Arial" font-size="14.00">nonce </text>
<text text-anchor="start" x="95.23" y="-432" font-family="Arial" font-size="14.00" fill="#666666">[varchar]</text>
<polygon fill="none" stroke="black" points="46.2,-389 46.2,-419.8 345.78,-419.8 345.78,-389 46.2,-389"/>
<text text-anchor="start" x="53.2" y="-401.2" font-family="Arial" font-size="14.00">tel </text>
<text text-anchor="start" x="71.88" y="-401.2" font-family="Arial" font-size="14.00" fill="#666666">[varchar]</text>
<polygon fill="none" stroke="black" points="46.2,-358.2 46.2,-389 345.78,-389 345.78,-358.2 46.2,-358.2"/>
<text text-anchor="start" x="53.2" y="-370.4" font-family="Arial" font-size="14.00">created_at </text>
<text text-anchor="start" x="123.25" y="-370.4" font-family="Arial" font-size="14.00" fill="#666666">[timestamp with time zone]</text>
<polygon fill="none" stroke="black" points="46.2,-327.4 46.2,-358.2 345.78,-358.2 345.78,-327.4 46.2,-327.4"/>
<text text-anchor="start" x="53.2" y="-339.6" font-family="Arial" font-size="14.00">updated_at </text>
<text text-anchor="start" x="127.16" y="-339.6" font-family="Arial" font-size="14.00" fill="#666666">[timestamp with time zone]</text>
<polygon fill="none" stroke="black" points="46.2,-296.6 46.2,-327.4 345.78,-327.4 345.78,-296.6 46.2,-296.6"/>
<text text-anchor="start" x="53.2" y="-308.8" font-family="Arial" font-size="14.00">deleted_at </text>
<text text-anchor="start" x="122.48" y="-308.8" font-family="Arial" font-size="14.00" fill="#666666">[timestamp with time zone]</text>
<polygon fill="none" stroke="black" points="46.2,-265.8 46.2,-296.6 345.78,-296.6 345.78,-265.8 46.2,-265.8"/>
<text text-anchor="start" x="53.2" y="-278" font-family="Arial" font-size="14.00">purged_expires_at </text>
<text text-anchor="start" x="173.06" y="-278" font-family="Arial" font-size="14.00" fill="#666666">[timestamp with time zone]</text>
<polygon fill="none" stroke="black" stroke-width="3" points="44.7,-264.3 44.7,-734.1 347.28,-734.1 347.28,-264.3 44.7,-264.3"/>
</g>
<!-- public.users -->
<g id="node2" class="node">
<title>public.users</title>
<polygon fill="#efefef" stroke="none" points="71.11,-104.8 71.11,-140.4 320.88,-140.4 320.88,-104.8 71.11,-104.8"/>
<polygon fill="none" stroke="black" points="71.11,-104.8 71.11,-140.4 320.88,-140.4 320.88,-104.8 71.11,-104.8"/>
<text text-anchor="start" x="90.51" y="-118.2" font-family="Arial Bold" font-size="18.00">public.users</text>
<text text-anchor="start" x="176.99" y="-118.2" font-family="Arial" font-size="14.00">    </text>
<text text-anchor="start" x="208.11" y="-118.2" font-family="Arial" font-size="14.00" fill="#666666">[BASE TABLE]</text>
<polygon fill="none" stroke="black" points="71.11,-74 71.11,-104.8 320.88,-104.8 320.88,-74 71.11,-74"/>
<text text-anchor="start" x="78.11" y="-86.2" font-family="Arial" font-size="14.00">id </text>
<text text-anchor="start" x="92.89" y="-86.2" font-family="Arial" font-size="14.00" fill="#666666">[bigint]</text>
<polygon fill="none" stroke="black" points="71.11,-43.2 71.11,-74 320.88,-74 320.88,-43.2 71.11,-43.2"/>
<text text-anchor="start" x="78.11" y="-55.4" font-family="Arial" font-size="14.00">created_at </text>
<text text-anchor="start" x="148.15" y="-55.4" font-family="Arial" font-size="14.00" fill="#666666">[timestamp with time zone]</text>
</g>
<!-- public.user_profiles&#45;&gt;public.users -->
<g id="edge1" class="edge">
<title>public.user_profiles:user_id&#45;&gt;public.users:id</title>
<path fill="none" stroke="black" d="M356.12,-677.17C410.01,-622.98 384.39,-89.4 321.88,-89.4"/>
<polygon fill="black" stroke="black" points="356.12,-677.17 345.16,-677.39 351.3,-679.46 347.39,-681.31 347.39,-681.31 347.39,-681.31 351.3,-679.46 349.01,-685.52 356.12,-677.17"/>
<text text-anchor="start" x="353.78" y="-691.6" font-family="Arial" font-size="10.00">FOREIGN KEY (user_id) REFERENCES users(id)</text>
</g>
</g>
</svg>
