<?xml version="1.0" encoding="UTF-8" standalone="no"?>
<!DOCTYPE svg PUBLIC "-//W3C//DTD SVG 1.1//EN"
 "http://www.w3.org/Graphics/SVG/1.1/DTD/svg11.dtd">
<!-- Generated by graphviz version 12.1.2 (20240928.0832)
 -->
<!-- Title: public.user_deletes Pages: 1 -->
<svg width="592pt" height="448pt"
 viewBox="0.00 0.00 592.16 448.00" xmlns="http://www.w3.org/2000/svg" xmlns:xlink="http://www.w3.org/1999/xlink">
<g id="graph0" class="graph" transform="scale(1 1) rotate(0) translate(4 444)">
<title>public.user_deletes</title>
<polygon fill="white" stroke="none" points="-4,4 -4,-444 588.16,-444 588.16,4 -4,4"/>
<!-- public.user_deletes -->
<g id="node1" class="node">
<title>public.user_deletes</title>
<polygon fill="#efefef" stroke="none" points="46.2,-358.2 46.2,-393.8 345.78,-393.8 345.78,-358.2 46.2,-358.2"/>
<polygon fill="none" stroke="black" points="46.2,-358.2 46.2,-393.8 345.78,-393.8 345.78,-358.2 46.2,-358.2"/>
<text text-anchor="start" x="64.52" y="-371.6" font-family="Arial Bold" font-size="18.00">public.user_deletes</text>
<text text-anchor="start" x="202.97" y="-371.6" font-family="Arial" font-size="14.00">    </text>
<text text-anchor="start" x="234.09" y="-371.6" font-family="Arial" font-size="14.00" fill="#666666">[BASE TABLE]</text>
<polygon fill="none" stroke="black" points="46.2,-327.4 46.2,-358.2 345.78,-358.2 345.78,-327.4 46.2,-327.4"/>
<text text-anchor="start" x="53.2" y="-339.6" font-family="Arial" font-size="14.00">user_id </text>
<text text-anchor="start" x="103.01" y="-339.6" font-family="Arial" font-size="14.00" fill="#666666">[bigint]</text>
<polygon fill="none" stroke="black" points="46.2,-296.6 46.2,-327.4 345.78,-327.4 345.78,-296.6 46.2,-296.6"/>
<text text-anchor="start" x="53.2" y="-308.8" font-family="Arial" font-size="14.00">created_at </text>
<text text-anchor="start" x="123.25" y="-308.8" font-family="Arial" font-size="14.00" fill="#666666">[timestamp with time zone]</text>
<polygon fill="none" stroke="black" points="46.2,-265.8 46.2,-296.6 345.78,-296.6 345.78,-265.8 46.2,-265.8"/>
<text text-anchor="start" x="53.2" y="-278" font-family="Arial" font-size="14.00">purged_expires_at </text>
<text text-anchor="start" x="173.06" y="-278" font-family="Arial" font-size="14.00" fill="#666666">[timestamp with time zone]</text>
<polygon fill="none" stroke="black" stroke-width="3" points="44.7,-264.3 44.7,-395.3 347.28,-395.3 347.28,-264.3 44.7,-264.3"/>
</g>
<!-- public.users -->
<g id="node2" class="node">
<title>public.users</title>
<polygon fill="#efefef" stroke="none" points="71.11,-104.8 71.11,-140.4 320.88,-140.4 320.88,-104.8 71.11,-104.8"/>
<polygon fill="none" stroke="black" points="71.11,-104.8 71.11,-140.4 320.88,-140.4 320.88,-104.8 71.11,-104.8"/>
<text text-anchor="start" x="90.51" y="-118.2" font-family="Arial Bold" font-size="18.00">public.users</text>
<text text-anchor="start" x="176.99" y="-118.2" font-family="Arial" font-size="14.00">    </text>
<text text-anchor="start" x="208.11" y="-118.2" font-family="Arial" font-size="14.00" fill="#666666">[BASE TABLE]</text>
<polygon fill="none" stroke="black" points="71.11,-74 71.11,-104.8 320.88,-104.8 320.88,-74 71.11,-74"/>
<text text-anchor="start" x="78.11" y="-86.2" font-family="Arial" font-size="14.00">id </text>
<text text-anchor="start" x="92.89" y="-86.2" font-family="Arial" font-size="14.00" fill="#666666">[bigint]</text>
<polygon fill="none" stroke="black" points="71.11,-43.2 71.11,-74 320.88,-74 320.88,-43.2 71.11,-43.2"/>
<text text-anchor="start" x="78.11" y="-55.4" font-family="Arial" font-size="14.00">created_at </text>
<text text-anchor="start" x="148.15" y="-55.4" font-family="Arial" font-size="14.00" fill="#666666">[timestamp with time zone]</text>
</g>
<!-- public.user_deletes&#45;&gt;public.users -->
<g id="edge1" class="edge">
<title>public.user_deletes:user_id&#45;&gt;public.users:id</title>
<path fill="none" stroke="black" d="M356.99,-342.07C458.31,-327.21 431.51,-89.4 321.88,-89.4"/>
<polygon fill="black" stroke="black" points="357.09,-342.07 346.8,-338.29 351.77,-342.44 347.45,-342.75 347.45,-342.75 347.45,-342.75 351.77,-342.44 347.44,-347.26 357.09,-342.07"/>
<text text-anchor="start" x="353.78" y="-352.8" font-family="Arial" font-size="10.00">FOREIGN KEY (user_id) REFERENCES users(id)</text>
</g>
</g>
</svg>
