<?xml version="1.0" encoding="UTF-8" standalone="no"?>
<!DOCTYPE svg PUBLIC "-//W3C//DTD SVG 1.1//EN"
 "http://www.w3.org/Graphics/SVG/1.1/DTD/svg11.dtd">
<!-- Generated by graphviz version 12.1.2 (20240928.0832)
 -->
<!-- Title: chatapp Pages: 1 -->
<svg width="2430pt" height="781pt"
 viewBox="0.00 0.00 2429.68 780.80" xmlns="http://www.w3.org/2000/svg" xmlns:xlink="http://www.w3.org/1999/xlink">
<g id="graph0" class="graph" transform="scale(1 1) rotate(0) translate(4 776.8)">
<title>chatapp</title>
<polygon fill="white" stroke="none" points="-4,4 -4,-776.8 2425.68,-776.8 2425.68,4 -4,4"/>
<!-- public.bun_migrations -->
<g id="node1" class="node">
<title>public.bun_migrations</title>
<polygon fill="#efefef" stroke="none" points="43.2,-540 43.2,-575.6 344.17,-575.6 344.17,-540 43.2,-540"/>
<polygon fill="none" stroke="black" points="43.2,-540 43.2,-575.6 344.17,-575.6 344.17,-540 43.2,-540"/>
<text text-anchor="start" x="50.2" y="-553.4" font-family="Arial Bold" font-size="18.00">public.bun_migrations</text>
<text text-anchor="start" x="212.68" y="-553.4" font-family="Arial" font-size="14.00">    </text>
<text text-anchor="start" x="243.8" y="-553.4" font-family="Arial" font-size="14.00" fill="#666666">[BASE TABLE]</text>
<polygon fill="none" stroke="black" points="43.2,-509.2 43.2,-540 344.17,-540 344.17,-509.2 43.2,-509.2"/>
<text text-anchor="start" x="50.2" y="-521.4" font-family="Arial" font-size="14.00">id </text>
<text text-anchor="start" x="64.99" y="-521.4" font-family="Arial" font-size="14.00" fill="#666666">[bigint]</text>
<polygon fill="none" stroke="black" points="43.2,-478.4 43.2,-509.2 344.17,-509.2 344.17,-478.4 43.2,-478.4"/>
<text text-anchor="start" x="50.2" y="-490.6" font-family="Arial" font-size="14.00">name </text>
<text text-anchor="start" x="89.11" y="-490.6" font-family="Arial" font-size="14.00" fill="#666666">[varchar]</text>
<polygon fill="none" stroke="black" points="43.2,-447.6 43.2,-478.4 344.17,-478.4 344.17,-447.6 43.2,-447.6"/>
<text text-anchor="start" x="50.2" y="-459.8" font-family="Arial" font-size="14.00">group_id </text>
<text text-anchor="start" x="108.58" y="-459.8" font-family="Arial" font-size="14.00" fill="#666666">[bigint]</text>
<polygon fill="none" stroke="black" points="43.2,-416.8 43.2,-447.6 344.17,-447.6 344.17,-416.8 43.2,-416.8"/>
<text text-anchor="start" x="50.2" y="-429" font-family="Arial" font-size="14.00">migrated_at </text>
<text text-anchor="start" x="128.02" y="-429" font-family="Arial" font-size="14.00" fill="#666666">[timestamp with time zone]</text>
</g>
<!-- public.bun_migration_locks -->
<g id="node2" class="node">
<title>public.bun_migration_locks</title>
<polygon fill="#efefef" stroke="none" points="448.2,-509.2 448.2,-544.8 789.17,-544.8 789.17,-509.2 448.2,-509.2"/>
<polygon fill="none" stroke="black" points="448.2,-509.2 448.2,-544.8 789.17,-544.8 789.17,-509.2 448.2,-509.2"/>
<text text-anchor="start" x="455.2" y="-522.6" font-family="Arial Bold" font-size="18.00">public.bun_migration_locks</text>
<text text-anchor="start" x="657.68" y="-522.6" font-family="Arial" font-size="14.00">    </text>
<text text-anchor="start" x="688.8" y="-522.6" font-family="Arial" font-size="14.00" fill="#666666">[BASE TABLE]</text>
<polygon fill="none" stroke="black" points="448.2,-478.4 448.2,-509.2 789.17,-509.2 789.17,-478.4 448.2,-478.4"/>
<text text-anchor="start" x="455.2" y="-490.6" font-family="Arial" font-size="14.00">id </text>
<text text-anchor="start" x="469.99" y="-490.6" font-family="Arial" font-size="14.00" fill="#666666">[bigint]</text>
<polygon fill="none" stroke="black" points="448.2,-447.6 448.2,-478.4 789.17,-478.4 789.17,-447.6 448.2,-447.6"/>
<text text-anchor="start" x="455.2" y="-459.8" font-family="Arial" font-size="14.00">table_name </text>
<text text-anchor="start" x="532.26" y="-459.8" font-family="Arial" font-size="14.00" fill="#666666">[varchar]</text>
</g>
<!-- public.users -->
<g id="node3" class="node">
<title>public.users</title>
<polygon fill="#efefef" stroke="none" points="1506.8,-104.8 1506.8,-140.4 1756.57,-140.4 1756.57,-104.8 1506.8,-104.8"/>
<polygon fill="none" stroke="black" points="1506.8,-104.8 1506.8,-140.4 1756.57,-140.4 1756.57,-104.8 1506.8,-104.8"/>
<text text-anchor="start" x="1526.2" y="-118.2" font-family="Arial Bold" font-size="18.00">public.users</text>
<text text-anchor="start" x="1612.68" y="-118.2" font-family="Arial" font-size="14.00">    </text>
<text text-anchor="start" x="1643.8" y="-118.2" font-family="Arial" font-size="14.00" fill="#666666">[BASE TABLE]</text>
<polygon fill="none" stroke="black" points="1506.8,-74 1506.8,-104.8 1756.57,-104.8 1756.57,-74 1506.8,-74"/>
<text text-anchor="start" x="1513.8" y="-86.2" font-family="Arial" font-size="14.00">id </text>
<text text-anchor="start" x="1528.59" y="-86.2" font-family="Arial" font-size="14.00" fill="#666666">[bigint]</text>
<polygon fill="none" stroke="black" points="1506.8,-43.2 1506.8,-74 1756.57,-74 1756.57,-43.2 1506.8,-43.2"/>
<text text-anchor="start" x="1513.8" y="-55.4" font-family="Arial" font-size="14.00">created_at </text>
<text text-anchor="start" x="1583.85" y="-55.4" font-family="Arial" font-size="14.00" fill="#666666">[timestamp with time zone]</text>
</g>
<!-- public.user_profiles -->
<g id="node4" class="node">
<title>public.user_profiles</title>
<polygon fill="#efefef" stroke="none" points="893.89,-694 893.89,-729.6 1193.48,-729.6 1193.48,-694 893.89,-694"/>
<polygon fill="none" stroke="black" points="893.89,-694 893.89,-729.6 1193.48,-729.6 1193.48,-694 893.89,-694"/>
<text text-anchor="start" x="909.71" y="-707.4" font-family="Arial Bold" font-size="18.00">public.user_profiles</text>
<text text-anchor="start" x="1053.17" y="-707.4" font-family="Arial" font-size="14.00">    </text>
<text text-anchor="start" x="1084.29" y="-707.4" font-family="Arial" font-size="14.00" fill="#666666">[BASE TABLE]</text>
<polygon fill="none" stroke="black" points="893.89,-663.2 893.89,-694 1193.48,-694 1193.48,-663.2 893.89,-663.2"/>
<text text-anchor="start" x="900.89" y="-675.4" font-family="Arial" font-size="14.00">user_id </text>
<text text-anchor="start" x="950.7" y="-675.4" font-family="Arial" font-size="14.00" fill="#666666">[bigint]</text>
<polygon fill="none" stroke="black" points="893.89,-632.4 893.89,-663.2 1193.48,-663.2 1193.48,-632.4 893.89,-632.4"/>
<text text-anchor="start" x="900.89" y="-644.6" font-family="Arial" font-size="14.00">user_multi_id </text>
<text text-anchor="start" x="988.05" y="-644.6" font-family="Arial" font-size="14.00" fill="#666666">[varchar]</text>
<polygon fill="none" stroke="black" points="893.89,-601.6 893.89,-632.4 1193.48,-632.4 1193.48,-601.6 893.89,-601.6"/>
<text text-anchor="start" x="900.89" y="-613.8" font-family="Arial" font-size="14.00">resource_id </text>
<text text-anchor="start" x="977.93" y="-613.8" font-family="Arial" font-size="14.00" fill="#666666">[varchar]</text>
<polygon fill="none" stroke="black" points="893.89,-570.8 893.89,-601.6 1193.48,-601.6 1193.48,-570.8 893.89,-570.8"/>
<text text-anchor="start" x="900.89" y="-583" font-family="Arial" font-size="14.00">email </text>
<text text-anchor="start" x="938.24" y="-583" font-family="Arial" font-size="14.00" fill="#666666">[varchar]</text>
<polygon fill="none" stroke="black" points="893.89,-540 893.89,-570.8 1193.48,-570.8 1193.48,-540 893.89,-540"/>
<text text-anchor="start" x="900.89" y="-552.2" font-family="Arial" font-size="14.00">password </text>
<text text-anchor="start" x="964.7" y="-552.2" font-family="Arial" font-size="14.00" fill="#666666">[varchar]</text>
<polygon fill="none" stroke="black" points="893.89,-509.2 893.89,-540 1193.48,-540 1193.48,-509.2 893.89,-509.2"/>
<text text-anchor="start" x="900.89" y="-521.4" font-family="Arial" font-size="14.00">post_code </text>
<text text-anchor="start" x="969.39" y="-521.4" font-family="Arial" font-size="14.00" fill="#666666">[varchar]</text>
<polygon fill="none" stroke="black" points="893.89,-478.4 893.89,-509.2 1193.48,-509.2 1193.48,-478.4 893.89,-478.4"/>
<text text-anchor="start" x="900.89" y="-490.6" font-family="Arial" font-size="14.00">address </text>
<text text-anchor="start" x="954.59" y="-490.6" font-family="Arial" font-size="14.00" fill="#666666">[bigint]</text>
<polygon fill="none" stroke="black" points="893.89,-447.6 893.89,-478.4 1193.48,-478.4 1193.48,-447.6 893.89,-447.6"/>
<text text-anchor="start" x="900.89" y="-459.8" font-family="Arial" font-size="14.00">address_kana </text>
<text text-anchor="start" x="992.73" y="-459.8" font-family="Arial" font-size="14.00" fill="#666666">[varchar]</text>
<polygon fill="none" stroke="black" points="893.89,-416.8 893.89,-447.6 1193.48,-447.6 1193.48,-416.8 893.89,-416.8"/>
<text text-anchor="start" x="900.89" y="-429" font-family="Arial" font-size="14.00">nonce </text>
<text text-anchor="start" x="942.93" y="-429" font-family="Arial" font-size="14.00" fill="#666666">[varchar]</text>
<polygon fill="none" stroke="black" points="893.89,-386 893.89,-416.8 1193.48,-416.8 1193.48,-386 893.89,-386"/>
<text text-anchor="start" x="900.89" y="-398.2" font-family="Arial" font-size="14.00">tel </text>
<text text-anchor="start" x="919.57" y="-398.2" font-family="Arial" font-size="14.00" fill="#666666">[varchar]</text>
<polygon fill="none" stroke="black" points="893.89,-355.2 893.89,-386 1193.48,-386 1193.48,-355.2 893.89,-355.2"/>
<text text-anchor="start" x="900.89" y="-367.4" font-family="Arial" font-size="14.00">created_at </text>
<text text-anchor="start" x="970.94" y="-367.4" font-family="Arial" font-size="14.00" fill="#666666">[timestamp with time zone]</text>
<polygon fill="none" stroke="black" points="893.89,-324.4 893.89,-355.2 1193.48,-355.2 1193.48,-324.4 893.89,-324.4"/>
<text text-anchor="start" x="900.89" y="-336.6" font-family="Arial" font-size="14.00">updated_at </text>
<text text-anchor="start" x="974.85" y="-336.6" font-family="Arial" font-size="14.00" fill="#666666">[timestamp with time zone]</text>
<polygon fill="none" stroke="black" points="893.89,-293.6 893.89,-324.4 1193.48,-324.4 1193.48,-293.6 893.89,-293.6"/>
<text text-anchor="start" x="900.89" y="-305.8" font-family="Arial" font-size="14.00">deleted_at </text>
<text text-anchor="start" x="970.18" y="-305.8" font-family="Arial" font-size="14.00" fill="#666666">[timestamp with time zone]</text>
<polygon fill="none" stroke="black" points="893.89,-262.8 893.89,-293.6 1193.48,-293.6 1193.48,-262.8 893.89,-262.8"/>
<text text-anchor="start" x="900.89" y="-275" font-family="Arial" font-size="14.00">purged_expires_at </text>
<text text-anchor="start" x="1020.76" y="-275" font-family="Arial" font-size="14.00" fill="#666666">[timestamp with time zone]</text>
</g>
<!-- public.user_profiles&#45;&gt;public.users -->
<g id="edge1" class="edge">
<title>public.user_profiles:user_id&#45;&gt;public.users:id</title>
<path fill="none" stroke="black" d="M1204.79,-677.16C1289.37,-651.89 1189.1,-300.75 1245.69,-219.6 1319.63,-113.55 1376.52,-89.4 1505.8,-89.4"/>
<polygon fill="black" stroke="black" points="1204.71,-677.17 1194.19,-674.1 1199.43,-677.91 1195.14,-678.51 1195.14,-678.51 1195.14,-678.51 1199.43,-677.91 1195.43,-683.01 1204.71,-677.17"/>
<text text-anchor="start" x="1201.48" y="-688.6" font-family="Arial" font-size="10.00">FOREIGN KEY (user_id) REFERENCES users(id)</text>
</g>
<!-- public.user_actives -->
<g id="node5" class="node">
<title>public.user_actives</title>
<polygon fill="#efefef" stroke="none" points="1298.21,-509.2 1298.21,-544.8 1575.16,-544.8 1575.16,-509.2 1298.21,-509.2"/>
<polygon fill="none" stroke="black" points="1298.21,-509.2 1298.21,-544.8 1575.16,-544.8 1575.16,-509.2 1298.21,-509.2"/>
<text text-anchor="start" x="1305.21" y="-522.6" font-family="Arial Bold" font-size="18.00">public.user_actives</text>
<text text-anchor="start" x="1443.67" y="-522.6" font-family="Arial" font-size="14.00">    </text>
<text text-anchor="start" x="1474.79" y="-522.6" font-family="Arial" font-size="14.00" fill="#666666">[BASE TABLE]</text>
<polygon fill="none" stroke="black" points="1298.21,-478.4 1298.21,-509.2 1575.16,-509.2 1575.16,-478.4 1298.21,-478.4"/>
<text text-anchor="start" x="1305.21" y="-490.6" font-family="Arial" font-size="14.00">user_id </text>
<text text-anchor="start" x="1355.02" y="-490.6" font-family="Arial" font-size="14.00" fill="#666666">[bigint]</text>
<polygon fill="none" stroke="black" points="1298.21,-447.6 1298.21,-478.4 1575.16,-478.4 1575.16,-447.6 1298.21,-447.6"/>
<text text-anchor="start" x="1305.21" y="-459.8" font-family="Arial" font-size="14.00">created_at </text>
<text text-anchor="start" x="1375.26" y="-459.8" font-family="Arial" font-size="14.00" fill="#666666">[timestamp with time zone]</text>
</g>
<!-- public.user_actives&#45;&gt;public.users -->
<g id="edge2" class="edge">
<title>public.user_actives:user_id&#45;&gt;public.users:id</title>
<path fill="none" stroke="black" d="M1586.15,-493.34C1741.83,-478.16 1326.93,-89.4 1505.8,-89.4"/>
<polygon fill="black" stroke="black" points="1586.48,-493.33 1576.29,-489.29 1581.15,-493.57 1576.83,-493.77 1576.83,-493.77 1576.83,-493.77 1581.15,-493.57 1576.7,-498.28 1586.48,-493.33"/>
<text text-anchor="start" x="1464.47" y="-477.8" font-family="Arial" font-size="10.00">FOREIGN KEY (user_id) REFERENCES users(id)</text>
</g>
<!-- public.user_provision -->
<g id="node6" class="node">
<title>public.user_provision</title>
<polygon fill="#efefef" stroke="none" points="1679.2,-509.2 1679.2,-544.8 1974.17,-544.8 1974.17,-509.2 1679.2,-509.2"/>
<polygon fill="none" stroke="black" points="1679.2,-509.2 1679.2,-544.8 1974.17,-544.8 1974.17,-509.2 1679.2,-509.2"/>
<text text-anchor="start" x="1686.2" y="-522.6" font-family="Arial Bold" font-size="18.00">public.user_provision</text>
<text text-anchor="start" x="1842.68" y="-522.6" font-family="Arial" font-size="14.00">    </text>
<text text-anchor="start" x="1873.8" y="-522.6" font-family="Arial" font-size="14.00" fill="#666666">[BASE TABLE]</text>
<polygon fill="none" stroke="black" points="1679.2,-478.4 1679.2,-509.2 1974.17,-509.2 1974.17,-478.4 1679.2,-478.4"/>
<text text-anchor="start" x="1686.2" y="-490.6" font-family="Arial" font-size="14.00">user_id </text>
<text text-anchor="start" x="1736.01" y="-490.6" font-family="Arial" font-size="14.00" fill="#666666">[bigint]</text>
<polygon fill="none" stroke="black" points="1679.2,-447.6 1679.2,-478.4 1974.17,-478.4 1974.17,-447.6 1679.2,-447.6"/>
<text text-anchor="start" x="1686.2" y="-459.8" font-family="Arial" font-size="14.00">created_at </text>
<text text-anchor="start" x="1756.25" y="-459.8" font-family="Arial" font-size="14.00" fill="#666666">[timestamp with time zone]</text>
</g>
<!-- public.user_provision&#45;&gt;public.users -->
<g id="edge3" class="edge">
<title>public.user_provision:user_id&#45;&gt;public.users:id</title>
<path fill="none" stroke="black" d="M1668.18,-493.34C1512.21,-478.16 1937.16,-89.4 1757.57,-89.4"/>
<polygon fill="black" stroke="black" points="1667.88,-493.33 1677.66,-498.28 1673.21,-493.57 1677.53,-493.77 1677.53,-493.77 1677.53,-493.77 1673.21,-493.57 1678.07,-489.29 1667.88,-493.33"/>
<text text-anchor="start" x="1447.82" y="-503.8" font-family="Arial" font-size="10.00">FOREIGN KEY (user_id) REFERENCES users(id)</text>
</g>
<!-- public.user_deletes -->
<g id="node7" class="node">
<title>public.user_deletes</title>
<polygon fill="#efefef" stroke="none" points="2078.89,-524.6 2078.89,-560.2 2378.48,-560.2 2378.48,-524.6 2078.89,-524.6"/>
<polygon fill="none" stroke="black" points="2078.89,-524.6 2078.89,-560.2 2378.48,-560.2 2378.48,-524.6 2078.89,-524.6"/>
<text text-anchor="start" x="2097.21" y="-538" font-family="Arial Bold" font-size="18.00">public.user_deletes</text>
<text text-anchor="start" x="2235.67" y="-538" font-family="Arial" font-size="14.00">    </text>
<text text-anchor="start" x="2266.79" y="-538" font-family="Arial" font-size="14.00" fill="#666666">[BASE TABLE]</text>
<polygon fill="none" stroke="black" points="2078.89,-493.8 2078.89,-524.6 2378.48,-524.6 2378.48,-493.8 2078.89,-493.8"/>
<text text-anchor="start" x="2085.89" y="-506" font-family="Arial" font-size="14.00">user_id </text>
<text text-anchor="start" x="2135.7" y="-506" font-family="Arial" font-size="14.00" fill="#666666">[bigint]</text>
<polygon fill="none" stroke="black" points="2078.89,-463 2078.89,-493.8 2378.48,-493.8 2378.48,-463 2078.89,-463"/>
<text text-anchor="start" x="2085.89" y="-475.2" font-family="Arial" font-size="14.00">created_at </text>
<text text-anchor="start" x="2155.94" y="-475.2" font-family="Arial" font-size="14.00" fill="#666666">[timestamp with time zone]</text>
<polygon fill="none" stroke="black" points="2078.89,-432.2 2078.89,-463 2378.48,-463 2378.48,-432.2 2078.89,-432.2"/>
<text text-anchor="start" x="2085.89" y="-444.4" font-family="Arial" font-size="14.00">purged_expires_at </text>
<text text-anchor="start" x="2205.76" y="-444.4" font-family="Arial" font-size="14.00" fill="#666666">[timestamp with time zone]</text>
</g>
<!-- public.user_deletes&#45;&gt;public.users -->
<g id="edge4" class="edge">
<title>public.user_deletes:user_id&#45;&gt;public.users:id</title>
<path fill="none" stroke="black" d="M2067.89,-506.99C2018.31,-482.89 2063.88,-268.77 2026.69,-219.6 1946.53,-113.63 1890.44,-89.4 1757.57,-89.4"/>
<polygon fill="black" stroke="black" points="2067.8,-506.97 2076.6,-513.52 2073.01,-508.12 2077.24,-509.06 2077.24,-509.06 2077.24,-509.06 2073.01,-508.12 2078.54,-504.73 2067.8,-506.97"/>
<text text-anchor="start" x="2025.55" y="-493.2" font-family="Arial" font-size="10.00">FOREIGN KEY (user_id) REFERENCES users(id)</text>
</g>
</g>
</svg>
