<?xml version="1.0" encoding="UTF-8" standalone="no"?>
<!DOCTYPE svg PUBLIC "-//W3C//DTD SVG 1.1//EN"
 "http://www.w3.org/Graphics/SVG/1.1/DTD/svg11.dtd">
<!-- Generated by graphviz version 12.1.2 (20240928.0832)
 -->
<!-- Title: public.bun_migration_locks Pages: 1 -->
<svg width="441pt" height="198pt"
 viewBox="0.00 0.00 441.36 197.60" xmlns="http://www.w3.org/2000/svg" xmlns:xlink="http://www.w3.org/1999/xlink">
<g id="graph0" class="graph" transform="scale(1 1) rotate(0) translate(4 193.6)">
<title>public.bun_migration_locks</title>
<polygon fill="white" stroke="none" points="-4,4 -4,-193.6 437.36,-193.6 437.36,4 -4,4"/>
<!-- public.bun_migration_locks -->
<g id="node1" class="node">
<title>public.bun_migration_locks</title>
<polygon fill="#efefef" stroke="none" points="46.2,-107.8 46.2,-143.4 387.16,-143.4 387.16,-107.8 46.2,-107.8"/>
<polygon fill="none" stroke="black" points="46.2,-107.8 46.2,-143.4 387.16,-143.4 387.16,-107.8 46.2,-107.8"/>
<text text-anchor="start" x="53.2" y="-121.2" font-family="Arial Bold" font-size="18.00">public.bun_migration_locks</text>
<text text-anchor="start" x="255.67" y="-121.2" font-family="Arial" font-size="14.00">    </text>
<text text-anchor="start" x="286.79" y="-121.2" font-family="Arial" font-size="14.00" fill="#666666">[BASE TABLE]</text>
<polygon fill="none" stroke="black" points="46.2,-77 46.2,-107.8 387.16,-107.8 387.16,-77 46.2,-77"/>
<text text-anchor="start" x="53.2" y="-89.2" font-family="Arial" font-size="14.00">id </text>
<text text-anchor="start" x="67.99" y="-89.2" font-family="Arial" font-size="14.00" fill="#666666">[bigint]</text>
<polygon fill="none" stroke="black" points="46.2,-46.2 46.2,-77 387.16,-77 387.16,-46.2 46.2,-46.2"/>
<text text-anchor="start" x="53.2" y="-58.4" font-family="Arial" font-size="14.00">table_name </text>
<text text-anchor="start" x="130.25" y="-58.4" font-family="Arial" font-size="14.00" fill="#666666">[varchar]</text>
<polygon fill="none" stroke="black" stroke-width="3" points="44.7,-44.7 44.7,-144.9 388.66,-144.9 388.66,-44.7 44.7,-44.7"/>
</g>
</g>
</svg>
