<?xml version="1.0" encoding="UTF-8" standalone="no"?>
<!DOCTYPE svg PUBLIC "-//W3C//DTD SVG 1.1//EN"
 "http://www.w3.org/Graphics/SVG/1.1/DTD/svg11.dtd">
<!-- Generated by graphviz version 12.1.2 (20240928.0832)
 -->
<!-- Title: public.users Pages: 1 -->
<svg width="1579pt" height="787pt"
 viewBox="0.00 0.00 1578.98 786.80" xmlns="http://www.w3.org/2000/svg" xmlns:xlink="http://www.w3.org/1999/xlink">
<g id="graph0" class="graph" transform="scale(1 1) rotate(0) translate(4 782.8)">
<title>public.users</title>
<polygon fill="white" stroke="none" points="-4,4 -4,-782.8 1574.98,-782.8 1574.98,4 -4,4"/>
<!-- public.users -->
<g id="node1" class="node">
<title>public.users</title>
<polygon fill="#efefef" stroke="none" points="656.11,-107.8 656.11,-143.4 905.88,-143.4 905.88,-107.8 656.11,-107.8"/>
<polygon fill="none" stroke="black" points="656.11,-107.8 656.11,-143.4 905.88,-143.4 905.88,-107.8 656.11,-107.8"/>
<text text-anchor="start" x="675.51" y="-121.2" font-family="Arial Bold" font-size="18.00">public.users</text>
<text text-anchor="start" x="761.99" y="-121.2" font-family="Arial" font-size="14.00">    </text>
<text text-anchor="start" x="793.11" y="-121.2" font-family="Arial" font-size="14.00" fill="#666666">[BASE TABLE]</text>
<polygon fill="none" stroke="black" points="656.11,-77 656.11,-107.8 905.88,-107.8 905.88,-77 656.11,-77"/>
<text text-anchor="start" x="663.11" y="-89.2" font-family="Arial" font-size="14.00">id </text>
<text text-anchor="start" x="677.89" y="-89.2" font-family="Arial" font-size="14.00" fill="#666666">[bigint]</text>
<polygon fill="none" stroke="black" points="656.11,-46.2 656.11,-77 905.88,-77 905.88,-46.2 656.11,-46.2"/>
<text text-anchor="start" x="663.11" y="-58.4" font-family="Arial" font-size="14.00">created_at </text>
<text text-anchor="start" x="733.15" y="-58.4" font-family="Arial" font-size="14.00" fill="#666666">[timestamp with time zone]</text>
<polygon fill="none" stroke="black" stroke-width="3" points="654.61,-44.7 654.61,-144.9 907.38,-144.9 907.38,-44.7 654.61,-44.7"/>
</g>
<!-- public.user_profiles -->
<g id="node2" class="node">
<title>public.user_profiles</title>
<polygon fill="#efefef" stroke="none" points="43.2,-700 43.2,-735.6 342.78,-735.6 342.78,-700 43.2,-700"/>
<polygon fill="none" stroke="black" points="43.2,-700 43.2,-735.6 342.78,-735.6 342.78,-700 43.2,-700"/>
<text text-anchor="start" x="59.02" y="-713.4" font-family="Arial Bold" font-size="18.00">public.user_profiles</text>
<text text-anchor="start" x="202.48" y="-713.4" font-family="Arial" font-size="14.00">    </text>
<text text-anchor="start" x="233.6" y="-713.4" font-family="Arial" font-size="14.00" fill="#666666">[BASE TABLE]</text>
<polygon fill="none" stroke="black" points="43.2,-669.2 43.2,-700 342.78,-700 342.78,-669.2 43.2,-669.2"/>
<text text-anchor="start" x="50.2" y="-681.4" font-family="Arial" font-size="14.00">user_id </text>
<text text-anchor="start" x="100.01" y="-681.4" font-family="Arial" font-size="14.00" fill="#666666">[bigint]</text>
<polygon fill="none" stroke="black" points="43.2,-638.4 43.2,-669.2 342.78,-669.2 342.78,-638.4 43.2,-638.4"/>
<text text-anchor="start" x="50.2" y="-650.6" font-family="Arial" font-size="14.00">user_multi_id </text>
<text text-anchor="start" x="137.35" y="-650.6" font-family="Arial" font-size="14.00" fill="#666666">[varchar]</text>
<polygon fill="none" stroke="black" points="43.2,-607.6 43.2,-638.4 342.78,-638.4 342.78,-607.6 43.2,-607.6"/>
<text text-anchor="start" x="50.2" y="-619.8" font-family="Arial" font-size="14.00">resource_id </text>
<text text-anchor="start" x="127.24" y="-619.8" font-family="Arial" font-size="14.00" fill="#666666">[varchar]</text>
<polygon fill="none" stroke="black" points="43.2,-576.8 43.2,-607.6 342.78,-607.6 342.78,-576.8 43.2,-576.8"/>
<text text-anchor="start" x="50.2" y="-589" font-family="Arial" font-size="14.00">email </text>
<text text-anchor="start" x="87.54" y="-589" font-family="Arial" font-size="14.00" fill="#666666">[varchar]</text>
<polygon fill="none" stroke="black" points="43.2,-546 43.2,-576.8 342.78,-576.8 342.78,-546 43.2,-546"/>
<text text-anchor="start" x="50.2" y="-558.2" font-family="Arial" font-size="14.00">password </text>
<text text-anchor="start" x="114.01" y="-558.2" font-family="Arial" font-size="14.00" fill="#666666">[varchar]</text>
<polygon fill="none" stroke="black" points="43.2,-515.2 43.2,-546 342.78,-546 342.78,-515.2 43.2,-515.2"/>
<text text-anchor="start" x="50.2" y="-527.4" font-family="Arial" font-size="14.00">post_code </text>
<text text-anchor="start" x="118.7" y="-527.4" font-family="Arial" font-size="14.00" fill="#666666">[varchar]</text>
<polygon fill="none" stroke="black" points="43.2,-484.4 43.2,-515.2 342.78,-515.2 342.78,-484.4 43.2,-484.4"/>
<text text-anchor="start" x="50.2" y="-496.6" font-family="Arial" font-size="14.00">address </text>
<text text-anchor="start" x="103.9" y="-496.6" font-family="Arial" font-size="14.00" fill="#666666">[bigint]</text>
<polygon fill="none" stroke="black" points="43.2,-453.6 43.2,-484.4 342.78,-484.4 342.78,-453.6 43.2,-453.6"/>
<text text-anchor="start" x="50.2" y="-465.8" font-family="Arial" font-size="14.00">address_kana </text>
<text text-anchor="start" x="142.04" y="-465.8" font-family="Arial" font-size="14.00" fill="#666666">[varchar]</text>
<polygon fill="none" stroke="black" points="43.2,-422.8 43.2,-453.6 342.78,-453.6 342.78,-422.8 43.2,-422.8"/>
<text text-anchor="start" x="50.2" y="-435" font-family="Arial" font-size="14.00">nonce </text>
<text text-anchor="start" x="92.23" y="-435" font-family="Arial" font-size="14.00" fill="#666666">[varchar]</text>
<polygon fill="none" stroke="black" points="43.2,-392 43.2,-422.8 342.78,-422.8 342.78,-392 43.2,-392"/>
<text text-anchor="start" x="50.2" y="-404.2" font-family="Arial" font-size="14.00">tel </text>
<text text-anchor="start" x="68.88" y="-404.2" font-family="Arial" font-size="14.00" fill="#666666">[varchar]</text>
<polygon fill="none" stroke="black" points="43.2,-361.2 43.2,-392 342.78,-392 342.78,-361.2 43.2,-361.2"/>
<text text-anchor="start" x="50.2" y="-373.4" font-family="Arial" font-size="14.00">created_at </text>
<text text-anchor="start" x="120.25" y="-373.4" font-family="Arial" font-size="14.00" fill="#666666">[timestamp with time zone]</text>
<polygon fill="none" stroke="black" points="43.2,-330.4 43.2,-361.2 342.78,-361.2 342.78,-330.4 43.2,-330.4"/>
<text text-anchor="start" x="50.2" y="-342.6" font-family="Arial" font-size="14.00">updated_at </text>
<text text-anchor="start" x="124.16" y="-342.6" font-family="Arial" font-size="14.00" fill="#666666">[timestamp with time zone]</text>
<polygon fill="none" stroke="black" points="43.2,-299.6 43.2,-330.4 342.78,-330.4 342.78,-299.6 43.2,-299.6"/>
<text text-anchor="start" x="50.2" y="-311.8" font-family="Arial" font-size="14.00">deleted_at </text>
<text text-anchor="start" x="119.48" y="-311.8" font-family="Arial" font-size="14.00" fill="#666666">[timestamp with time zone]</text>
<polygon fill="none" stroke="black" points="43.2,-268.8 43.2,-299.6 342.78,-299.6 342.78,-268.8 43.2,-268.8"/>
<text text-anchor="start" x="50.2" y="-281" font-family="Arial" font-size="14.00">purged_expires_at </text>
<text text-anchor="start" x="170.06" y="-281" font-family="Arial" font-size="14.00" fill="#666666">[timestamp with time zone]</text>
</g>
<!-- public.user_profiles&#45;&gt;public.users -->
<g id="edge1" class="edge">
<title>public.user_profiles:user_id&#45;&gt;public.users:id</title>
<path fill="none" stroke="black" d="M354.1,-683.16C438.71,-657.91 338.78,-307 394.99,-225.6 468.79,-118.72 525.22,-92.4 655.11,-92.4"/>
<polygon fill="black" stroke="black" points="354.02,-683.17 343.5,-680.1 348.74,-683.91 344.45,-684.51 344.45,-684.51 344.45,-684.51 348.74,-683.91 344.74,-689.01 354.02,-683.17"/>
<text text-anchor="start" x="350.78" y="-694.6" font-family="Arial" font-size="10.00">FOREIGN KEY (user_id) REFERENCES users(id)</text>
</g>
<!-- public.user_actives -->
<g id="node3" class="node">
<title>public.user_actives</title>
<polygon fill="#efefef" stroke="none" points="447.52,-515.2 447.52,-550.8 724.46,-550.8 724.46,-515.2 447.52,-515.2"/>
<polygon fill="none" stroke="black" points="447.52,-515.2 447.52,-550.8 724.46,-550.8 724.46,-515.2 447.52,-515.2"/>
<text text-anchor="start" x="454.52" y="-528.6" font-family="Arial Bold" font-size="18.00">public.user_actives</text>
<text text-anchor="start" x="592.97" y="-528.6" font-family="Arial" font-size="14.00">    </text>
<text text-anchor="start" x="624.09" y="-528.6" font-family="Arial" font-size="14.00" fill="#666666">[BASE TABLE]</text>
<polygon fill="none" stroke="black" points="447.52,-484.4 447.52,-515.2 724.46,-515.2 724.46,-484.4 447.52,-484.4"/>
<text text-anchor="start" x="454.52" y="-496.6" font-family="Arial" font-size="14.00">user_id </text>
<text text-anchor="start" x="504.33" y="-496.6" font-family="Arial" font-size="14.00" fill="#666666">[bigint]</text>
<polygon fill="none" stroke="black" points="447.52,-453.6 447.52,-484.4 724.46,-484.4 724.46,-453.6 447.52,-453.6"/>
<text text-anchor="start" x="454.52" y="-465.8" font-family="Arial" font-size="14.00">created_at </text>
<text text-anchor="start" x="524.57" y="-465.8" font-family="Arial" font-size="14.00" fill="#666666">[timestamp with time zone]</text>
</g>
<!-- public.user_actives&#45;&gt;public.users -->
<g id="edge2" class="edge">
<title>public.user_actives:user_id&#45;&gt;public.users:id</title>
<path fill="none" stroke="black" d="M735.53,-499.34C892.34,-484.04 474.95,-92.4 655.11,-92.4"/>
<polygon fill="black" stroke="black" points="735.79,-499.33 725.59,-495.29 730.46,-499.57 726.13,-499.77 726.13,-499.77 726.13,-499.77 730.46,-499.57 726,-504.28 735.79,-499.33"/>
<text text-anchor="start" x="732.46" y="-509.8" font-family="Arial" font-size="10.00">FOREIGN KEY (user_id) REFERENCES users(id)</text>
</g>
<!-- public.user_provision -->
<g id="node4" class="node">
<title>public.user_provision</title>
<polygon fill="#efefef" stroke="none" points="828.51,-515.2 828.51,-550.8 1123.48,-550.8 1123.48,-515.2 828.51,-515.2"/>
<polygon fill="none" stroke="black" points="828.51,-515.2 828.51,-550.8 1123.48,-550.8 1123.48,-515.2 828.51,-515.2"/>
<text text-anchor="start" x="835.51" y="-528.6" font-family="Arial Bold" font-size="18.00">public.user_provision</text>
<text text-anchor="start" x="991.99" y="-528.6" font-family="Arial" font-size="14.00">    </text>
<text text-anchor="start" x="1023.11" y="-528.6" font-family="Arial" font-size="14.00" fill="#666666">[BASE TABLE]</text>
<polygon fill="none" stroke="black" points="828.51,-484.4 828.51,-515.2 1123.48,-515.2 1123.48,-484.4 828.51,-484.4"/>
<text text-anchor="start" x="835.51" y="-496.6" font-family="Arial" font-size="14.00">user_id </text>
<text text-anchor="start" x="885.31" y="-496.6" font-family="Arial" font-size="14.00" fill="#666666">[bigint]</text>
<polygon fill="none" stroke="black" points="828.51,-453.6 828.51,-484.4 1123.48,-484.4 1123.48,-453.6 828.51,-453.6"/>
<text text-anchor="start" x="835.51" y="-465.8" font-family="Arial" font-size="14.00">created_at </text>
<text text-anchor="start" x="905.56" y="-465.8" font-family="Arial" font-size="14.00" fill="#666666">[timestamp with time zone]</text>
</g>
<!-- public.user_provision&#45;&gt;public.users -->
<g id="edge3" class="edge">
<title>public.user_provision:user_id&#45;&gt;public.users:id</title>
<path fill="none" stroke="black" d="M817.41,-499.34C660.31,-484.04 1087.75,-92.4 906.88,-92.4"/>
<polygon fill="black" stroke="black" points="817.18,-499.33 826.97,-504.28 822.51,-499.57 826.84,-499.77 826.84,-499.77 826.84,-499.77 822.51,-499.57 827.38,-495.29 817.18,-499.33"/>
<text text-anchor="start" x="775.16" y="-483.8" font-family="Arial" font-size="10.00">FOREIGN KEY (user_id) REFERENCES users(id)</text>
</g>
<!-- public.user_deletes -->
<g id="node5" class="node">
<title>public.user_deletes</title>
<polygon fill="#efefef" stroke="none" points="1228.2,-530.6 1228.2,-566.2 1527.78,-566.2 1527.78,-530.6 1228.2,-530.6"/>
<polygon fill="none" stroke="black" points="1228.2,-530.6 1228.2,-566.2 1527.78,-566.2 1527.78,-530.6 1228.2,-530.6"/>
<text text-anchor="start" x="1246.52" y="-544" font-family="Arial Bold" font-size="18.00">public.user_deletes</text>
<text text-anchor="start" x="1384.97" y="-544" font-family="Arial" font-size="14.00">    </text>
<text text-anchor="start" x="1416.09" y="-544" font-family="Arial" font-size="14.00" fill="#666666">[BASE TABLE]</text>
<polygon fill="none" stroke="black" points="1228.2,-499.8 1228.2,-530.6 1527.78,-530.6 1527.78,-499.8 1228.2,-499.8"/>
<text text-anchor="start" x="1235.2" y="-512" font-family="Arial" font-size="14.00">user_id </text>
<text text-anchor="start" x="1285.01" y="-512" font-family="Arial" font-size="14.00" fill="#666666">[bigint]</text>
<polygon fill="none" stroke="black" points="1228.2,-469 1228.2,-499.8 1527.78,-499.8 1527.78,-469 1228.2,-469"/>
<text text-anchor="start" x="1235.2" y="-481.2" font-family="Arial" font-size="14.00">created_at </text>
<text text-anchor="start" x="1305.25" y="-481.2" font-family="Arial" font-size="14.00" fill="#666666">[timestamp with time zone]</text>
<polygon fill="none" stroke="black" points="1228.2,-438.2 1228.2,-469 1527.78,-469 1527.78,-438.2 1228.2,-438.2"/>
<text text-anchor="start" x="1235.2" y="-450.4" font-family="Arial" font-size="14.00">purged_expires_at </text>
<text text-anchor="start" x="1355.06" y="-450.4" font-family="Arial" font-size="14.00" fill="#666666">[timestamp with time zone]</text>
</g>
<!-- public.user_deletes&#45;&gt;public.users -->
<g id="edge4" class="edge">
<title>public.user_deletes:user_id&#45;&gt;public.users:id</title>
<path fill="none" stroke="black" d="M1217.2,-512.99C1167.59,-488.91 1212.96,-274.94 1175.99,-225.6 1095.96,-118.8 1040.33,-92.4 906.88,-92.4"/>
<polygon fill="black" stroke="black" points="1217.11,-512.97 1225.9,-519.52 1222.32,-514.12 1226.55,-515.06 1226.55,-515.06 1226.55,-515.06 1222.32,-514.12 1227.84,-510.73 1217.11,-512.97"/>
<text text-anchor="start" x="1056.17" y="-499.2" font-family="Arial" font-size="10.00">FOREIGN KEY (user_id) REFERENCES users(id)</text>
</g>
</g>
</svg>
